<svg width="126" height="57" viewBox="0 0 126 57" fill="none" xmlns="http://www.w3.org/2000/svg">
<g id="BME Logo">
<g id="Group">
<path id="Vector" fill-rule="evenodd" clip-rule="evenodd" d="M32.0534 0.00282286L32.3045 0.0366971C32.8969 0.11856 33.4865 0.220183 34.0789 0.344389L34.3328 0.398023L34.1466 1.4453L33.9463 2.52081L33.6445 4.24558L31.6246 15.4439L35.7067 4.53633L35.9493 4.61537C36.5192 4.79886 37.0919 5.00493 37.6448 5.23075L37.8818 5.32955L33.842 16.1242L39.597 6.4587L40.5054 4.93435L41.0696 4.00281L41.6226 3.07409L41.8511 3.1983C42.373 3.48058 42.9062 3.76851 43.4196 4.09879L43.634 4.23711L43.0811 5.16583L42.5366 6.10302L41.6282 7.62454L35.8449 17.3577L43.2786 8.81578L44.4493 7.47493L45.1546 6.66194L45.8627 5.84614L46.0602 5.99575C46.5539 6.36837 47.0052 6.76074 47.451 7.17006L47.6428 7.34507L46.9291 8.16935L46.221 8.98233L45.0502 10.3232L37.532 18.9583L46.5003 11.7883L48.0942 10.5095L48.2606 10.7043C48.6471 11.1531 49.0336 11.6245 49.4003 12.0959L49.5611 12.302L47.9644 13.5836L39.0159 20.7395L49.1465 15.2745L50.7206 14.422L51.6516 13.9139L52.6418 13.3888L52.7716 13.6062C53.0791 14.1199 53.3612 14.6506 53.6433 15.1785L53.7674 15.4128L52.7716 15.9661L51.8434 16.4742L40.1725 22.7748L51.33 19.1418L51.4203 19.3761C51.6459 19.952 51.8293 20.5278 52.0099 21.0924L52.0917 21.3493L40.7903 25.019L55.1751 23.0684L56.3374 22.9131L56.3798 23.1644C56.4813 23.7543 56.5829 24.3697 56.6449 24.9682L56.6703 25.2251L55.4883 25.3803L52.6841 25.767L41.1909 27.3196L54.5968 27.9378L55.6265 27.9773L56.8283 28.0281V28.3443C56.8283 28.9202 56.8086 29.513 56.7662 30.0888L56.7493 30.3457L55.5447 30.2949L54.515 30.2554L41.1119 29.6372L52.5064 32.2483L54.5122 32.7113L54.4614 32.9625C54.3401 33.5751 54.2188 34.1453 54.0749 34.7381L54.0129 34.995L40.5477 31.8926L51.3779 36.5673L53.0339 37.2787L53.9593 37.6823L55.1018 38.1679L55.0087 38.4078C54.7858 38.978 54.563 39.5313 54.3175 40.0846L54.2103 40.3245L53.0593 39.8362L52.1312 39.4297L50.478 38.7183L39.7973 34.0973L49.7473 40.7254L49.6232 40.9399C49.3157 41.4734 48.9885 41.99 48.6415 42.484L48.492 42.6957L38.4742 36.0168L46.9714 44.2313L48.2606 45.4678L48.9885 46.1396L49.8969 47.0288L49.7332 47.2179C49.3242 47.6922 48.9151 48.1212 48.4891 48.5503L48.3029 48.7366L47.3889 47.8418L46.6611 47.1502L45.3916 45.9138L36.8069 37.6315L43.8146 47.3563L44.8471 48.8016L45.4113 49.6117L46.1617 50.6421L45.9699 50.8001C45.4988 51.1925 45.0079 51.5425 44.5255 51.8841L44.3083 52.0394L43.5494 50.9949L42.9626 50.1819L41.9329 48.7394L35.0466 39.1643L41.0047 51.6611L40.7819 51.7825C40.2487 52.0704 39.6986 52.3386 39.1485 52.5842L38.9115 52.6914L38.0539 50.8735L32.9336 40.1269L36.0678 51.6639L36.5333 53.3548L36.7759 54.3061L37.1032 55.5454L36.8634 55.6216C36.2935 55.8051 35.7208 55.9716 35.1284 56.1156L34.8745 56.1777L34.5472 54.9328L33.8222 52.2934L30.6851 40.7282L31.7402 52.9173L31.4892 52.9512C30.8939 53.033 30.2987 53.0754 29.6949 53.1149L29.4354 53.1318L28.3831 40.9653L27.1164 54.6025L27.0149 55.5962L26.8879 56.8665L26.572 56.8439C26.0078 56.8044 25.4125 56.7648 24.837 56.683L24.5831 56.6491L24.71 55.3788L24.8116 54.3852L24.9724 52.6802L26.0726 40.81L22.8707 52.3104L22.408 53.9533L22.1457 54.9074L21.8156 56.1325L21.5617 56.0676C20.9918 55.9236 20.4022 55.7599 19.8295 55.5764L19.5897 55.5002L19.917 54.2807L20.1794 53.3266L20.642 51.6809L23.796 40.333L18.6729 50.9328L17.8124 52.6858L17.5783 52.5814C17.0282 52.3358 16.4781 52.0676 15.9449 51.7797L15.722 51.6583L16.5571 49.9081L21.7253 39.2151L14.7516 48.7987L13.7642 50.1593L13.1774 50.9752L12.4354 51.9773L12.2238 51.8248C11.7358 51.4776 11.2477 51.1078 10.7794 50.7409L10.5791 50.5828L11.2929 49.5835L11.8797 48.7705L12.8699 47.4099L19.7929 37.8997L11.1264 46.1678L10.9431 45.9928C10.5143 45.5807 10.0826 45.129 9.69331 44.6745L9.52969 44.4826L18.2892 36.1269L6.99352 43.5454L6.14436 44.0958L5.14287 44.7423L4.99617 44.5334C4.64918 44.0394 4.32193 43.5256 4.01725 43.0147L3.88466 42.7945L4.88615 42.1481L5.73248 41.6004L16.8984 34.2554L4.60968 39.4664L3.68154 39.8729L2.59259 40.3443L2.48539 40.0987C2.2456 39.5539 2.00016 38.9978 1.79422 38.4191L1.71241 38.1848L2.79007 37.7218L5.25289 36.6661L16.0605 32.0733L4.62943 34.6506L2.75904 35.074L2.69698 34.8143C2.55592 34.2271 2.41204 33.6315 2.31048 33.0359L2.26817 32.7847L4.1301 32.3866L15.6684 29.784L3.8762 30.2723L2.23714 30.3542L1.20743 30.3937L0.0789909 30.4473L0.0620643 30.1876C0.0225688 29.5723 0 28.9795 0 28.3641V28.11L1.1228 28.0564L2.1525 28.0169L3.78874 27.9548L15.3045 27.4608L3.64204 25.8291L3.6759 25.5666C3.75771 24.9569 3.8367 24.3641 3.94108 23.7685L3.9834 23.5144L15.5274 25.1347L4.72253 21.5497L3.14553 21.0218L2.1384 20.6774L1.11151 20.333L1.18204 20.0903C1.34567 19.5144 1.54879 18.9385 1.75191 18.3712L1.83936 18.1199L2.87188 18.4671L3.88184 18.7918L16.4724 22.995L2.9678 15.6189L3.08629 15.3874C3.37122 14.8369 3.65615 14.3034 3.96365 13.7897L4.09342 13.5695L7.4054 15.3761L17.4767 20.892L8.54512 13.6824L7.05558 12.4657L7.20792 12.2625C7.57466 11.7685 7.96397 11.2971 8.35047 10.8482L8.51973 10.6506L10.0121 11.8701L18.8365 18.9922L11.4396 10.3994L10.345 9.11501L9.68203 8.30767L8.98521 7.52856L9.17987 7.35072C9.62843 6.94141 10.0742 6.55185 10.5425 6.16512L10.7428 5.99857L11.417 6.78615L12.1251 7.59913L13.214 8.87789L20.6589 17.5469L14.7346 7.4467L14.9434 7.30838C15.4371 6.9781 15.9703 6.66759 16.4978 6.38248L16.7235 6.2611L22.5999 16.2484L18.1143 4.00846L17.7306 2.98941L17.3836 2.01834L17.6178 1.92237C18.1651 1.69936 18.7378 1.47071 19.3133 1.28722L19.5587 1.20818L19.9085 2.17925L20.2922 3.19547L20.8762 4.79886L24.8229 15.5624L22.8481 4.26816L22.5463 2.58009L22.3657 1.50458L22.1767 0.479886L22.4362 0.426251C23.0174 0.304869 23.6126 0.180663 24.2051 0.0988L24.4561 0.0649257L24.6452 1.08962L24.8257 2.16513L25.1276 3.85038L27.0234 14.7014V1.71347L27.2744 1.69936C27.644 1.6796 28.0136 1.6796 28.3747 1.6796H29.331V3.40437H29.3508V14.9978L31.3679 3.80521L31.6697 2.09738L31.87 1.02187L32.0562 0L32.0534 0.00282286ZM28.2675 39.8362C34.787 39.8362 40.0738 34.5461 40.0738 28.0225C40.0738 21.4989 34.787 16.2088 28.2675 16.2088C21.7479 16.2088 16.4611 21.4989 16.4611 28.0225C16.4611 34.5461 21.7479 39.8362 28.2675 39.8362Z" fill="#005AEE"/>
<path id="Vector_2" d="M69.0663 25.5356H72.0002V23.8221H72.1328C72.5447 24.7141 73.4475 25.7078 75.1796 25.7078C77.6255 25.7078 79.5326 23.7798 79.5326 20.2004C79.5326 16.621 77.5409 14.7015 75.1853 14.7015C73.3882 14.7015 72.5306 15.7657 72.13 16.638H72.0397V11.2773H69.0635V25.5356H69.0663ZM71.9805 20.1891C71.9805 18.2809 72.7902 17.0642 74.2374 17.0642C75.6846 17.0642 76.4943 18.3373 76.4943 20.1891C76.4943 22.0409 75.6987 23.3507 74.2374 23.3507C72.776 23.3507 71.9805 22.0974 71.9805 20.1891Z" fill="#005AEE"/>
<path id="Vector_3" d="M86.4134 25.7442C89.0681 25.7442 90.8566 24.457 91.277 22.4725L88.5236 22.2918C88.2245 23.1076 87.4544 23.5311 86.4614 23.5311C84.9718 23.5311 84.0296 22.5487 84.0296 20.9538V20.9482H91.339V20.1323C91.339 16.4993 89.1301 14.7012 86.2921 14.7012C83.1325 14.7012 81.0872 16.9369 81.0872 20.2368C81.0872 23.5367 83.1071 25.7442 86.4134 25.7442ZM84.0296 19.1105C84.0916 17.891 85.0226 16.9171 86.3429 16.9171C87.6632 16.9171 88.5292 17.8374 88.5377 19.1105H84.0296Z" fill="#005AEE"/>
<path id="Vector_4" d="M97.8358 25.5353H100.812V19.1161C100.812 17.9333 101.565 17.1458 102.558 17.1458C103.551 17.1458 104.195 17.8148 104.195 18.8649V25.5353H107.081V19.006C107.081 17.8995 107.715 17.1458 108.799 17.1458C109.749 17.1458 110.463 17.7386 110.463 18.927V25.5353H113.434V18.3427C113.434 16.0251 112.051 14.7012 110.051 14.7012C108.48 14.7012 107.256 15.5029 106.815 16.728H106.703C106.361 15.4887 105.264 14.7012 103.788 14.7012C102.313 14.7012 101.244 15.4662 100.798 16.728H100.671V14.8423H97.833V25.5353H97.8358Z" fill="#005AEE"/>
<path id="Vector_5" d="M117.237 29.5263C119.451 29.5263 120.633 28.4056 121.234 26.6922L125.407 14.8559L122.255 14.8418L120.013 22.695H119.9L117.677 14.8418H114.545L118.396 25.8425L118.221 26.2941C117.801 27.2624 117.082 27.3301 116.035 27.0055L115.364 29.2271C115.79 29.4021 116.481 29.5263 117.237 29.5263Z" fill="#005AEE"/>
<path id="Vector_6" d="M73.9017 43.7735C76.5563 43.7735 78.3449 42.4863 78.7653 40.5018L76.0119 40.3211C75.71 41.1369 74.9427 41.5604 73.9496 41.5604C72.4601 41.5604 71.5179 40.578 71.5179 38.9831V38.9775H78.8273V38.1616C78.8273 34.5286 76.6184 32.7305 73.7804 32.7305C70.6207 32.7305 68.5754 34.9662 68.5754 38.2661C68.5754 41.566 70.5954 43.7735 73.9017 43.7735ZM71.5179 37.1369C71.5799 35.9175 72.5109 34.9436 73.8312 34.9436C75.1514 34.9436 76.0175 35.8638 76.026 37.1369H71.5179Z" fill="#005AEE"/>
<path id="Vector_7" d="M82.4352 47.5536C84.6498 47.5536 85.8318 46.433 86.4327 44.7195L90.6051 32.8833L87.454 32.8691L85.2112 40.7223H85.0984L82.8753 32.8691H79.7439L83.5947 43.8698L83.4198 44.3215C82.9994 45.2897 82.2801 45.3575 81.2334 45.0328L80.562 47.2544C80.988 47.4294 81.6792 47.5536 82.4352 47.5536Z" fill="#005AEE"/>
<path id="Vector_8" d="M96.6539 43.7735C99.3085 43.7735 101.097 42.4863 101.517 40.5018L98.7641 40.3211C98.465 41.1369 97.6949 41.5604 96.7018 41.5604C95.2123 41.5604 94.2701 40.578 94.2701 38.9831V38.9775H101.58V38.1616C101.58 34.5286 99.3706 32.7305 96.5326 32.7305C93.3729 32.7305 91.3276 34.9662 91.3276 38.2661C91.3276 41.566 93.3475 43.7735 96.6539 43.7735ZM94.2729 37.1369C94.3349 35.9175 95.2659 34.9436 96.5862 34.9436C97.9065 34.9436 98.7725 35.8638 98.781 37.1369H94.2729Z" fill="#005AEE"/>
<path id="Vector_9" d="M112.455 35.9203C112.19 33.9499 110.596 32.7305 107.885 32.7305C105.174 32.7305 103.329 33.9979 103.334 36.0586C103.329 37.6592 104.341 38.698 106.437 39.1158L108.297 39.4856C109.233 39.6747 109.659 40.0134 109.673 40.5498C109.659 41.1821 108.968 41.6366 107.927 41.6366C106.886 41.6366 106.158 41.1849 105.978 40.3127L103.049 40.4651C103.329 42.5117 105.075 43.7735 107.921 43.7735C110.768 43.7735 112.695 42.3592 112.7 40.2506C112.695 38.7036 111.679 37.7777 109.597 37.3543L107.653 36.9648C106.655 36.7502 106.282 36.4087 106.291 35.8921C106.285 35.2513 107.01 34.8335 107.933 34.8335C108.968 34.8335 109.583 35.3981 109.73 36.0868L112.455 35.9203Z" fill="#005AEE"/>
</g>
</g>
</svg>
