<svg xmlns="http://www.w3.org/2000/svg" xmlns:xlink="http://www.w3.org/1999/xlink" width="48" height="48" viewBox="0 0 48 48"><defs><path id="w6ssa" d="M135 33.33c0-7.36 5.97-13.33 13.33-13.33h21.34c7.36 0 13.33 5.97 13.33 13.33v21.34c0 7.36-5.97 13.33-13.33 13.33h-21.34A13.33 13.33 0 0 1 135 54.67z"/><path id="w6ssc" d="M135 68h48V20h-48z"/><path id="w6sse" d="M135 68h8v-8h-8z"/><path id="w6ssf" d="M143 68h8v-8h-8z"/><path id="w6ssg" d="M151 68h8v-8h-8z"/><path id="w6ssh" d="M159 68h8v-8h-8z"/><path id="w6ssi" d="M167 68h8v-8h-8z"/><path id="w6ssj" d="M175 68h8v-8h-8z"/><path id="w6ssk" d="M135 60h8v-8h-8z"/><path id="w6ssl" d="M143 60h8v-8h-8z"/><path id="w6ssm" d="M151 60h8v-8h-8z"/><path id="w6ssn" d="M159 60h8v-8h-8z"/><path id="w6sso" d="M167 60h8v-8h-8z"/><path id="w6ssp" d="M175 60h8v-8h-8z"/><path id="w6ssq" d="M135 52h8v-8h-8z"/><path id="w6ssr" d="M143 52h8v-8h-8z"/><path id="w6sss" d="M151 52h8v-8h-8z"/><path id="w6sst" d="M159 52h8v-8h-8z"/><path id="w6ssu" d="M167 52h8v-8h-8z"/><path id="w6ssv" d="M175 52h8v-8h-8z"/><path id="w6ssw" d="M135 44h8v-8h-8z"/><path id="w6ssx" d="M143 44h8v-8h-8z"/><path id="w6ssy" d="M151 44h8v-8h-8z"/><path id="w6ssz" d="M159 44h8v-8h-8z"/><path id="w6ssA" d="M167 44h8v-8h-8z"/><path id="w6ssB" d="M175 44h8v-8h-8z"/><path id="w6ssC" d="M135 36h8v-8h-8z"/><path id="w6ssD" d="M143 36h8v-8h-8z"/><path id="w6ssE" d="M151 36h8v-8h-8z"/><path id="w6ssF" d="M159 36h8v-8h-8z"/><path id="w6ssG" d="M167 36h8v-8h-8z"/><path id="w6ssH" d="M175 36h8v-8h-8z"/><path id="w6ssI" d="M135 28h8v-8h-8z"/><path id="w6ssJ" d="M143 28h8v-8h-8z"/><path id="w6ssK" d="M151 28h8v-8h-8z"/><path id="w6ssL" d="M159 28h8v-8h-8z"/><path id="w6ssM" d="M167 28h8v-8h-8z"/><path id="w6ssN" d="M175 28h8v-8h-8z"/><path id="w6ssO" d="M176.32 43.18c.04.32.12 1.07.12 1.62 0 5.13-3.04 9.69-8.84 9.69-3.65 0-6.76-1.6-8.58-4.37-1.82 2.76-4.93 4.37-8.58 4.37-5.8 0-8.84-4.56-8.84-9.7 0-.54.08-1.3.12-1.61zm-25.67 8.15c3.04 0 5.5-2.07 6.06-5.39h-11.05c.13 3.44 2.31 5.39 4.99 5.39zm16.74 0c2.67 0 4.86-1.95 4.98-5.39h-11.05c.57 3.32 3.03 5.39 6.07 5.39z"/><path id="w6ssP" d="M168.22 33.56c-4.06 0-7.33 1.8-9.2 4.61-1.86-2.81-5.13-4.61-9.19-4.61-3.89 0-6.97 2.05-7.94 2.84l1.66 2.8c.7-.47 2.92-2.32 6.04-2.32 3.19 0 5.98 1.49 6.84 4.67h5.2c.85-3.18 3.64-4.67 6.83-4.67 3.12 0 5.35 1.85 6.04 2.33l1.66-2.8a13.43 13.43 0 0 0-7.94-2.85"/><linearGradient id="w6ssd" x1="178.75" x2="139.3" y1="64.13" y2="23.92" gradientUnits="userSpaceOnUse"><stop offset="0" stop-color="#5752c8"/><stop offset="1" stop-color="#6b46b5"/></linearGradient><clipPath id="w6ssb"><use xlink:href="#w6ssa"/></clipPath></defs><g><g transform="translate(-135 -20)"><g><use fill="#d8d8d8" xlink:href="#w6ssa"/></g><g clip-path="url(#w6ssb)"><g><use fill="url(#w6ssd)" xlink:href="#w6ssc"/></g><g><use fill="#db5eaf" xlink:href="#w6sse"/></g><g><use fill="#d25ec2" xlink:href="#w6ssf"/></g><g><use fill="#ac4ec2" xlink:href="#w6ssg"/></g><g><use fill="#9246c2" xlink:href="#w6ssh"/></g><g><use fill="#814bc2" xlink:href="#w6ssi"/></g><g><use fill="#6b46b5" xlink:href="#w6ssj"/></g><g><use fill="#9e56c2" xlink:href="#w6ssk"/></g><g><use fill="#b152c2" xlink:href="#w6ssl"/></g><g><use fill="#a34cc2" xlink:href="#w6ssm"/></g><g><use fill="#9347c2" xlink:href="#w6ssn"/></g><g><use fill="#8b44c2" xlink:href="#w6sso"/></g><g><use fill="#734bc2" xlink:href="#w6ssp"/></g><g><use fill="#795dc2" xlink:href="#w6ssq"/></g><g><use fill="#7856c2" xlink:href="#w6ssr"/></g><g><use fill="#7059c2" xlink:href="#w6sss"/></g><g><use fill="#6a5dc2" xlink:href="#w6sst"/></g><g><use fill="#5d67c2" xlink:href="#w6ssu"/></g><g><use fill="#5870c2" xlink:href="#w6ssv"/></g><g><use fill="#6c6ddb" xlink:href="#w6ssw"/></g><g><use fill="#587bd4" xlink:href="#w6ssx"/></g><g><use fill="#588ad4" xlink:href="#w6ssy"/></g><g><use fill="#5899da" xlink:href="#w6ssz"/></g><g><use fill="#58a1cb" xlink:href="#w6ssA"/></g><g><use fill="#58b9cf" xlink:href="#w6ssB"/></g><g><use fill="#585ee5" xlink:href="#w6ssC"/></g><g><use fill="#586fd0" xlink:href="#w6ssD"/></g><g><use fill="#5878df" xlink:href="#w6ssE"/></g><g><use fill="#58a0d6" xlink:href="#w6ssF"/></g><g><use fill="#58b0d4" xlink:href="#w6ssG"/></g><g><use fill="#58c3d2" xlink:href="#w6ssH"/></g><g><use fill="#5853c9" xlink:href="#w6ssI"/></g><g><use fill="#585ee4" xlink:href="#w6ssJ"/></g><g><use fill="#586ddb" xlink:href="#w6ssK"/></g><g><use fill="#587bd3" xlink:href="#w6ssL"/></g><g><use fill="#58a0d6" xlink:href="#w6ssM"/></g><g><use fill="#58b9cf" xlink:href="#w6ssN"/></g><g><g><use fill="#fff" xlink:href="#w6ssO"/></g><g><use fill="#fff" xlink:href="#w6ssP"/></g></g></g></g></g></svg>